<mxfile host="app.diagrams.net" modified="2021-06-03T17:13:54.922Z" agent="5.0 (Windows NT 10.0; Win64; x64) AppleWebKit/537.36 (KHTML, like Gecko) Chrome/90.0.4430.212 Safari/537.36" etag="kvXRVouHaA-jRryUlPHR" version="14.7.3" type="github">
  <diagram id="e0xcCmvYDdd5LekHM-2G" name="Page-1">
    <mxGraphModel dx="2249" dy="1931" grid="1" gridSize="10" guides="1" tooltips="1" connect="1" arrows="1" fold="1" page="1" pageScale="1" pageWidth="827" pageHeight="1169" math="0" shadow="0">
      <root>
        <mxCell id="0" />
        <mxCell id="1" parent="0" />
        <mxCell id="TtjdpK1Vxb9fdw-xlZe1-1" value="Арендатор" style="swimlane;fontStyle=1;align=center;verticalAlign=top;childLayout=stackLayout;horizontal=1;startSize=26;horizontalStack=0;resizeParent=1;resizeParentMax=0;resizeLast=0;collapsible=1;marginBottom=0;" parent="1" vertex="1">
          <mxGeometry x="6" y="80" width="190" height="210" as="geometry" />
        </mxCell>
        <mxCell id="TtjdpK1Vxb9fdw-xlZe1-2" value="+ ФИО&#xa;+ пол&#xa;+ телефон &#xa;+ адрес&#xa;+имя пользователя" style="text;strokeColor=none;fillColor=none;align=left;verticalAlign=top;spacingLeft=4;spacingRight=4;overflow=hidden;rotatable=0;points=[[0,0.5],[1,0.5]];portConstraint=eastwest;" parent="TtjdpK1Vxb9fdw-xlZe1-1" vertex="1">
          <mxGeometry y="26" width="190" height="84" as="geometry" />
        </mxCell>
        <mxCell id="TtjdpK1Vxb9fdw-xlZe1-3" value="" style="line;strokeWidth=1;fillColor=none;align=left;verticalAlign=middle;spacingTop=-1;spacingLeft=3;spacingRight=3;rotatable=0;labelPosition=right;points=[];portConstraint=eastwest;" parent="TtjdpK1Vxb9fdw-xlZe1-1" vertex="1">
          <mxGeometry y="110" width="190" height="8" as="geometry" />
        </mxCell>
        <mxCell id="TtjdpK1Vxb9fdw-xlZe1-4" value="+ заказывает товар&#xa;+ ищет товар&#xa;+ оплачивает товар" style="text;strokeColor=none;fillColor=none;align=left;verticalAlign=top;spacingLeft=4;spacingRight=4;overflow=hidden;rotatable=0;points=[[0,0.5],[1,0.5]];portConstraint=eastwest;" parent="TtjdpK1Vxb9fdw-xlZe1-1" vertex="1">
          <mxGeometry y="118" width="190" height="92" as="geometry" />
        </mxCell>
        <mxCell id="TtjdpK1Vxb9fdw-xlZe1-5" value="Прокат" style="swimlane;fontStyle=1;align=center;verticalAlign=top;childLayout=stackLayout;horizontal=1;startSize=26;horizontalStack=0;resizeParent=1;resizeParentMax=0;resizeLast=0;collapsible=1;marginBottom=0;" parent="1" vertex="1">
          <mxGeometry x="320" y="100" width="160" height="110" as="geometry" />
        </mxCell>
        <mxCell id="TtjdpK1Vxb9fdw-xlZe1-6" value="+ адрес сайта&#xa;+ телефон&#xa;+ название" style="text;strokeColor=none;fillColor=none;align=left;verticalAlign=top;spacingLeft=4;spacingRight=4;overflow=hidden;rotatable=0;points=[[0,0.5],[1,0.5]];portConstraint=eastwest;" parent="TtjdpK1Vxb9fdw-xlZe1-5" vertex="1">
          <mxGeometry y="26" width="160" height="84" as="geometry" />
        </mxCell>
        <mxCell id="TtjdpK1Vxb9fdw-xlZe1-11" value="Консультант" style="swimlane;fontStyle=1;align=center;verticalAlign=top;childLayout=stackLayout;horizontal=1;startSize=26;horizontalStack=0;resizeParent=1;resizeParentMax=0;resizeLast=0;collapsible=1;marginBottom=0;" parent="1" vertex="1">
          <mxGeometry x="640" y="80" width="220" height="180" as="geometry" />
        </mxCell>
        <mxCell id="TtjdpK1Vxb9fdw-xlZe1-12" value="+ ФИО&#xa;+ пол&#xa;+ стаж работы" style="text;strokeColor=none;fillColor=none;align=left;verticalAlign=top;spacingLeft=4;spacingRight=4;overflow=hidden;rotatable=0;points=[[0,0.5],[1,0.5]];portConstraint=eastwest;" parent="TtjdpK1Vxb9fdw-xlZe1-11" vertex="1">
          <mxGeometry y="26" width="220" height="64" as="geometry" />
        </mxCell>
        <mxCell id="TtjdpK1Vxb9fdw-xlZe1-13" value="" style="line;strokeWidth=1;fillColor=none;align=left;verticalAlign=middle;spacingTop=-1;spacingLeft=3;spacingRight=3;rotatable=0;labelPosition=right;points=[];portConstraint=eastwest;" parent="TtjdpK1Vxb9fdw-xlZe1-11" vertex="1">
          <mxGeometry y="90" width="220" height="8" as="geometry" />
        </mxCell>
        <mxCell id="TtjdpK1Vxb9fdw-xlZe1-14" value="+ помогает при выборе товара&#xa;+ оказывает консультацию" style="text;strokeColor=none;fillColor=none;align=left;verticalAlign=top;spacingLeft=4;spacingRight=4;overflow=hidden;rotatable=0;points=[[0,0.5],[1,0.5]];portConstraint=eastwest;" parent="TtjdpK1Vxb9fdw-xlZe1-11" vertex="1">
          <mxGeometry y="98" width="220" height="82" as="geometry" />
        </mxCell>
        <mxCell id="TtjdpK1Vxb9fdw-xlZe1-19" value="" style="triangle;aspect=fixed;fillColor=#000000;fontSize=8;" parent="1" vertex="1">
          <mxGeometry x="300" y="140" width="6" height="12" as="geometry" />
        </mxCell>
        <mxCell id="TtjdpK1Vxb9fdw-xlZe1-25" value="&lt;font style=&quot;font-size: 10px&quot;&gt;посещает&lt;/font&gt;" style="text;html=1;align=center;verticalAlign=middle;resizable=0;points=[];autosize=1;strokeColor=none;fontSize=8;" parent="1" vertex="1">
          <mxGeometry x="240" y="136" width="60" height="20" as="geometry" />
        </mxCell>
        <mxCell id="TtjdpK1Vxb9fdw-xlZe1-26" value="0..n" style="text;html=1;align=center;verticalAlign=middle;resizable=0;points=[];autosize=1;strokeColor=none;fontSize=8;" parent="1" vertex="1">
          <mxGeometry x="196" y="170" width="30" height="20" as="geometry" />
        </mxCell>
        <mxCell id="TtjdpK1Vxb9fdw-xlZe1-27" value="1" style="text;html=1;align=center;verticalAlign=middle;resizable=0;points=[];autosize=1;strokeColor=none;fontSize=8;" parent="1" vertex="1">
          <mxGeometry x="300" y="170" width="20" height="20" as="geometry" />
        </mxCell>
        <mxCell id="TtjdpK1Vxb9fdw-xlZe1-28" value="" style="endArrow=none;startArrow=diamondThin;endFill=0;startFill=0;html=1;verticalAlign=bottom;labelBackgroundColor=none;strokeWidth=1;startSize=8;endSize=8;shadow=0;fontSize=8;align=center;rounded=0;entryX=0.96;entryY=-0.17;entryDx=0;entryDy=0;entryPerimeter=0;" parent="1" target="TtjdpK1Vxb9fdw-xlZe1-36" edge="1">
          <mxGeometry width="160" relative="1" as="geometry">
            <mxPoint x="480" y="156" as="sourcePoint" />
            <mxPoint x="610" y="156" as="targetPoint" />
          </mxGeometry>
        </mxCell>
        <mxCell id="TtjdpK1Vxb9fdw-xlZe1-30" value="" style="triangle;aspect=fixed;fillColor=#000000;fontSize=8;direction=west;" parent="1" vertex="1">
          <mxGeometry x="514" y="136" width="6" height="12" as="geometry" />
        </mxCell>
        <mxCell id="TtjdpK1Vxb9fdw-xlZe1-32" value="&lt;font style=&quot;font-size: 10px&quot;&gt;работает&lt;/font&gt;" style="text;html=1;align=center;verticalAlign=middle;resizable=0;points=[];autosize=1;strokeColor=none;fontSize=8;" parent="1" vertex="1">
          <mxGeometry x="520" y="132" width="60" height="20" as="geometry" />
        </mxCell>
        <mxCell id="TtjdpK1Vxb9fdw-xlZe1-34" value="1" style="text;html=1;align=center;verticalAlign=middle;resizable=0;points=[];autosize=1;strokeColor=none;fontSize=8;" parent="1" vertex="1">
          <mxGeometry x="480" y="160" width="20" height="20" as="geometry" />
        </mxCell>
        <mxCell id="TtjdpK1Vxb9fdw-xlZe1-36" value="1..n" style="text;html=1;align=center;verticalAlign=middle;resizable=0;points=[];autosize=1;strokeColor=none;fontSize=8;" parent="1" vertex="1">
          <mxGeometry x="610" y="160" width="30" height="20" as="geometry" />
        </mxCell>
        <mxCell id="TtjdpK1Vxb9fdw-xlZe1-41" value="Заказ" style="swimlane;fontStyle=1;align=center;verticalAlign=top;childLayout=stackLayout;horizontal=1;startSize=26;horizontalStack=0;resizeParent=1;resizeParentMax=0;resizeLast=0;collapsible=1;marginBottom=0;fontSize=12;" parent="1" vertex="1">
          <mxGeometry x="211" y="330" width="209" height="250" as="geometry" />
        </mxCell>
        <mxCell id="TtjdpK1Vxb9fdw-xlZe1-42" value="+ дата получения заказа&#xa;+ информация о сборке заказа&#xa;+ дата доставки&#xa;+ стоимость доставки&#xa;+ дата возврата&#xa;+ стоимость заказа&#xa;+ способ оплаты&#xa;+ способ получения" style="text;strokeColor=none;fillColor=none;align=left;verticalAlign=top;spacingLeft=4;spacingRight=4;overflow=hidden;rotatable=0;points=[[0,0.5],[1,0.5]];portConstraint=eastwest;" parent="TtjdpK1Vxb9fdw-xlZe1-41" vertex="1">
          <mxGeometry y="26" width="209" height="124" as="geometry" />
        </mxCell>
        <mxCell id="C1R75RsCY9PM_bfMWn9S-46" value="+ оформить заказ&#xa;+ указать дату доставки и возврата&#xa;+ указать стоимость доставки&#xa;+ указать стоимость заказа&#xa;+ выбрать способ оплаты&#xa;+ выбрать способ доставки" style="text;strokeColor=none;fillColor=none;align=left;verticalAlign=top;spacingLeft=4;spacingRight=4;overflow=hidden;rotatable=0;points=[[0,0.5],[1,0.5]];portConstraint=eastwest;" parent="TtjdpK1Vxb9fdw-xlZe1-41" vertex="1">
          <mxGeometry y="150" width="209" height="100" as="geometry" />
        </mxCell>
        <mxCell id="PLTpWuNPg3qXrqT_sEjc-2" value="" style="endArrow=none;html=1;exitX=1;exitY=0.5;exitDx=0;exitDy=0;" parent="1" source="PLTpWuNPg3qXrqT_sEjc-16" target="TtjdpK1Vxb9fdw-xlZe1-14" edge="1">
          <mxGeometry width="50" height="50" relative="1" as="geometry">
            <mxPoint x="700" y="590" as="sourcePoint" />
            <mxPoint x="700" y="250" as="targetPoint" />
            <Array as="points">
              <mxPoint x="700" y="630" />
            </Array>
          </mxGeometry>
        </mxCell>
        <mxCell id="PLTpWuNPg3qXrqT_sEjc-3" value="" style="triangle;aspect=fixed;fillColor=#000000;fontSize=8;direction=west;" parent="1" vertex="1">
          <mxGeometry x="438" y="260" width="6" height="12" as="geometry" />
        </mxCell>
        <mxCell id="PLTpWuNPg3qXrqT_sEjc-4" value="&lt;font style=&quot;font-size: 10px&quot;&gt;делает&lt;/font&gt;" style="text;html=1;align=center;verticalAlign=middle;resizable=0;points=[];autosize=1;strokeColor=none;fontSize=8;" parent="1" vertex="1">
          <mxGeometry x="125" y="370" width="50" height="20" as="geometry" />
        </mxCell>
        <mxCell id="PLTpWuNPg3qXrqT_sEjc-5" value="" style="triangle;aspect=fixed;fillColor=#000000;fontSize=8;direction=west;" parent="1" vertex="1">
          <mxGeometry x="520" y="624" width="6" height="12" as="geometry" />
        </mxCell>
        <mxCell id="PLTpWuNPg3qXrqT_sEjc-6" value="&lt;font style=&quot;font-size: 10px&quot;&gt;изучает&lt;/font&gt;" style="text;html=1;align=center;verticalAlign=middle;resizable=0;points=[];autosize=1;strokeColor=none;fontSize=8;" parent="1" vertex="1">
          <mxGeometry x="526" y="620" width="50" height="20" as="geometry" />
        </mxCell>
        <mxCell id="PLTpWuNPg3qXrqT_sEjc-9" value="0..n" style="text;html=1;align=center;verticalAlign=middle;resizable=0;points=[];autosize=1;strokeColor=none;fontSize=8;" parent="1" vertex="1">
          <mxGeometry x="130" y="290" width="30" height="20" as="geometry" />
        </mxCell>
        <mxCell id="PLTpWuNPg3qXrqT_sEjc-10" value="0..n" style="text;html=1;align=center;verticalAlign=middle;resizable=0;points=[];autosize=1;strokeColor=none;fontSize=8;" parent="1" vertex="1">
          <mxGeometry x="181" y="400" width="30" height="20" as="geometry" />
        </mxCell>
        <mxCell id="PLTpWuNPg3qXrqT_sEjc-11" value="0..n" style="text;html=1;align=center;verticalAlign=middle;resizable=0;points=[];autosize=1;strokeColor=none;fontSize=8;" parent="1" vertex="1">
          <mxGeometry x="418" y="400" width="30" height="20" as="geometry" />
        </mxCell>
        <mxCell id="PLTpWuNPg3qXrqT_sEjc-14" value="" style="endArrow=none;dashed=1;html=1;exitX=0.595;exitY=1.043;exitDx=0;exitDy=0;exitPerimeter=0;" parent="1" source="TtjdpK1Vxb9fdw-xlZe1-4" edge="1">
          <mxGeometry width="50" height="50" relative="1" as="geometry">
            <mxPoint x="120" y="269" as="sourcePoint" />
            <mxPoint x="210" y="398" as="targetPoint" />
            <Array as="points">
              <mxPoint x="120" y="400" />
            </Array>
          </mxGeometry>
        </mxCell>
        <mxCell id="PLTpWuNPg3qXrqT_sEjc-15" value="Товар" style="swimlane;fontStyle=1;align=center;verticalAlign=top;childLayout=stackLayout;horizontal=1;startSize=26;horizontalStack=0;resizeParent=1;resizeParentMax=0;resizeLast=0;collapsible=1;marginBottom=0;" parent="1" vertex="1">
          <mxGeometry x="250" y="600" width="160" height="234" as="geometry" />
        </mxCell>
        <mxCell id="PLTpWuNPg3qXrqT_sEjc-16" value="+ характеристики товара&#xa;+ информация об аренде&#xa;+ стоимость аренды&#xa;+ дата выпуска&#xa;+ состояние товара" style="text;strokeColor=none;fillColor=none;align=left;verticalAlign=top;spacingLeft=4;spacingRight=4;overflow=hidden;rotatable=0;points=[[0,0.5],[1,0.5]];portConstraint=eastwest;" parent="PLTpWuNPg3qXrqT_sEjc-15" vertex="1">
          <mxGeometry y="26" width="160" height="74" as="geometry" />
        </mxCell>
        <mxCell id="C1R75RsCY9PM_bfMWn9S-35" value="" style="line;strokeWidth=1;fillColor=none;align=left;verticalAlign=middle;spacingTop=-1;spacingLeft=3;spacingRight=3;rotatable=0;labelPosition=right;points=[];portConstraint=eastwest;" parent="PLTpWuNPg3qXrqT_sEjc-15" vertex="1">
          <mxGeometry y="100" width="160" height="8" as="geometry" />
        </mxCell>
        <mxCell id="C1R75RsCY9PM_bfMWn9S-36" value="+ доставить товар&lt;br&gt;+ выставить объявление о товаре&lt;br&gt;+ установить стоимость товара&lt;br&gt;+ указать хаарктеристики товара&lt;br&gt;+ заказать товар&lt;br&gt;+ оформить товар" style="text;html=1;strokeColor=none;fillColor=none;align=left;verticalAlign=middle;whiteSpace=wrap;rounded=0;" parent="PLTpWuNPg3qXrqT_sEjc-15" vertex="1">
          <mxGeometry y="108" width="160" height="126" as="geometry" />
        </mxCell>
        <mxCell id="PLTpWuNPg3qXrqT_sEjc-19" value="" style="endArrow=none;dashed=1;html=1;endSize=0;entryX=0;entryY=0;entryDx=0;entryDy=0;" parent="1" target="C1R75RsCY9PM_bfMWn9S-36" edge="1">
          <mxGeometry width="50" height="50" relative="1" as="geometry">
            <mxPoint x="120" y="400" as="sourcePoint" />
            <mxPoint x="255" y="570" as="targetPoint" />
            <Array as="points">
              <mxPoint x="120" y="700" />
            </Array>
          </mxGeometry>
        </mxCell>
        <mxCell id="PLTpWuNPg3qXrqT_sEjc-20" value="" style="endArrow=none;dashed=1;html=1;" parent="1" edge="1">
          <mxGeometry width="50" height="50" relative="1" as="geometry">
            <mxPoint x="120" y="440" as="sourcePoint" />
            <mxPoint x="150" y="400" as="targetPoint" />
          </mxGeometry>
        </mxCell>
        <mxCell id="PLTpWuNPg3qXrqT_sEjc-21" value="{xor}" style="text;html=1;align=center;verticalAlign=middle;resizable=0;points=[];autosize=1;strokeColor=none;" parent="1" vertex="1">
          <mxGeometry x="130" y="420" width="40" height="20" as="geometry" />
        </mxCell>
        <mxCell id="PLTpWuNPg3qXrqT_sEjc-22" value="" style="triangle;aspect=fixed;fillColor=#000000;fontSize=8;" parent="1" vertex="1">
          <mxGeometry x="200" y="680" width="6" height="12" as="geometry" />
        </mxCell>
        <mxCell id="PLTpWuNPg3qXrqT_sEjc-23" value="&lt;span style=&quot;font-size: 10px&quot;&gt;выбирает&lt;/span&gt;" style="text;html=1;align=center;verticalAlign=middle;resizable=0;points=[];autosize=1;strokeColor=none;fontSize=8;" parent="1" vertex="1">
          <mxGeometry x="135" y="674" width="60" height="20" as="geometry" />
        </mxCell>
        <mxCell id="PLTpWuNPg3qXrqT_sEjc-24" value="0..n" style="text;html=1;align=center;verticalAlign=middle;resizable=0;points=[];autosize=1;strokeColor=none;fontSize=8;" parent="1" vertex="1">
          <mxGeometry x="220" y="790" width="30" height="20" as="geometry" />
        </mxCell>
        <mxCell id="PLTpWuNPg3qXrqT_sEjc-26" value="0..1" style="text;html=1;align=center;verticalAlign=middle;resizable=0;points=[];autosize=1;strokeColor=none;fontSize=8;" parent="1" vertex="1">
          <mxGeometry x="410" y="640" width="30" height="20" as="geometry" />
        </mxCell>
        <mxCell id="nrKsuJoveC5pMPnF76qd-7" value="Оператор" style="swimlane;fontStyle=1;align=center;verticalAlign=top;childLayout=stackLayout;horizontal=1;startSize=26;horizontalStack=0;resizeParent=1;resizeParentMax=0;resizeLast=0;collapsible=1;marginBottom=0;" parent="1" vertex="1">
          <mxGeometry x="500" y="318" width="180" height="160" as="geometry" />
        </mxCell>
        <mxCell id="nrKsuJoveC5pMPnF76qd-8" value="+ ФИО &#xa;+ пол &#xa;+ стаж работы &#xa;&#xa;" style="text;strokeColor=none;fillColor=none;align=left;verticalAlign=top;spacingLeft=4;spacingRight=4;overflow=hidden;rotatable=0;points=[[0,0.5],[1,0.5]];portConstraint=eastwest;" parent="nrKsuJoveC5pMPnF76qd-7" vertex="1">
          <mxGeometry y="26" width="180" height="54" as="geometry" />
        </mxCell>
        <mxCell id="nrKsuJoveC5pMPnF76qd-9" value="" style="line;strokeWidth=1;fillColor=none;align=left;verticalAlign=middle;spacingTop=-1;spacingLeft=3;spacingRight=3;rotatable=0;labelPosition=right;points=[];portConstraint=eastwest;" parent="nrKsuJoveC5pMPnF76qd-7" vertex="1">
          <mxGeometry y="80" width="180" height="8" as="geometry" />
        </mxCell>
        <mxCell id="nrKsuJoveC5pMPnF76qd-10" value="+ обработать заказ &#xa;+ поддерживает порядок&#xa;+ модерирует анкеты арендодателей&#xa;+ блокирует пользователей&#xa;" style="text;strokeColor=none;fillColor=none;align=left;verticalAlign=top;spacingLeft=4;spacingRight=4;overflow=hidden;rotatable=0;points=[[0,0.5],[1,0.5]];portConstraint=eastwest;" parent="nrKsuJoveC5pMPnF76qd-7" vertex="1">
          <mxGeometry y="88" width="180" height="72" as="geometry" />
        </mxCell>
        <mxCell id="nrKsuJoveC5pMPnF76qd-11" value="" style="endArrow=none;html=1;exitX=1.002;exitY=0.953;exitDx=0;exitDy=0;exitPerimeter=0;" parent="1" source="TtjdpK1Vxb9fdw-xlZe1-2" edge="1">
          <mxGeometry width="50" height="50" relative="1" as="geometry">
            <mxPoint x="240" y="210" as="sourcePoint" />
            <mxPoint x="320" y="167" as="targetPoint" />
          </mxGeometry>
        </mxCell>
        <mxCell id="nrKsuJoveC5pMPnF76qd-12" value="" style="endArrow=none;html=1;exitX=-0.029;exitY=1.25;exitDx=0;exitDy=0;exitPerimeter=0;" parent="1" source="C1R75RsCY9PM_bfMWn9S-40" edge="1">
          <mxGeometry width="50" height="50" relative="1" as="geometry">
            <mxPoint x="399" y="399" as="sourcePoint" />
            <mxPoint x="500" y="399" as="targetPoint" />
          </mxGeometry>
        </mxCell>
        <mxCell id="nrKsuJoveC5pMPnF76qd-14" value="" style="endArrow=none;startArrow=diamondThin;endFill=0;startFill=0;html=1;verticalAlign=bottom;labelBackgroundColor=none;strokeWidth=1;startSize=8;endSize=8;shadow=0;fontSize=8;align=center;rounded=0;exitX=0.513;exitY=0.993;exitDx=0;exitDy=0;exitPerimeter=0;" parent="1" source="TtjdpK1Vxb9fdw-xlZe1-6" edge="1">
          <mxGeometry width="160" relative="1" as="geometry">
            <mxPoint x="410.6" y="270" as="sourcePoint" />
            <mxPoint x="570" y="320" as="targetPoint" />
            <Array as="points">
              <mxPoint x="402" y="280" />
              <mxPoint x="570" y="280" />
            </Array>
          </mxGeometry>
        </mxCell>
        <mxCell id="nrKsuJoveC5pMPnF76qd-15" value="&lt;font style=&quot;font-size: 10px&quot;&gt;&lt;font style=&quot;vertical-align: inherit&quot;&gt;&lt;font style=&quot;vertical-align: inherit&quot;&gt;работает&lt;/font&gt;&lt;/font&gt;&lt;/font&gt;" style="text;html=1;align=center;verticalAlign=middle;resizable=0;points=[];autosize=1;strokeColor=none;fontSize=8;" parent="1" vertex="1">
          <mxGeometry x="444" y="256" width="60" height="20" as="geometry" />
        </mxCell>
        <mxCell id="nrKsuJoveC5pMPnF76qd-16" value="1" style="text;html=1;align=center;verticalAlign=middle;resizable=0;points=[];autosize=1;strokeColor=none;fontSize=8;" parent="1" vertex="1">
          <mxGeometry x="404" y="210" width="20" height="20" as="geometry" />
        </mxCell>
        <mxCell id="nrKsuJoveC5pMPnF76qd-17" value="1..n" style="text;html=1;align=center;verticalAlign=middle;resizable=0;points=[];autosize=1;strokeColor=none;fontSize=8;" parent="1" vertex="1">
          <mxGeometry x="570" y="298" width="30" height="20" as="geometry" />
        </mxCell>
        <mxCell id="-7OwyvMqQKjzLkI9JtXx-1" value="" style="triangle;aspect=fixed;fillColor=#000000;fontSize=8;" parent="1" vertex="1">
          <mxGeometry x="170" y="374" width="6" height="12" as="geometry" />
        </mxCell>
        <mxCell id="C1R75RsCY9PM_bfMWn9S-4" value="Курьер" style="swimlane;" parent="1" vertex="1">
          <mxGeometry x="6" y="-120" width="220" height="130" as="geometry" />
        </mxCell>
        <mxCell id="C1R75RsCY9PM_bfMWn9S-5" value="+ ФИО&#xa;+ пол&#xa;+ стаж работы&#xa;+ сотояние товара" style="text;strokeColor=none;fillColor=none;align=left;verticalAlign=top;spacingLeft=4;spacingRight=4;overflow=hidden;rotatable=0;points=[[0,0.5],[1,0.5]];portConstraint=eastwest;" parent="C1R75RsCY9PM_bfMWn9S-4" vertex="1">
          <mxGeometry y="20" width="220" height="70" as="geometry" />
        </mxCell>
        <mxCell id="C1R75RsCY9PM_bfMWn9S-6" value="" style="line;strokeWidth=1;fillColor=none;align=left;verticalAlign=middle;spacingTop=-1;spacingLeft=3;spacingRight=3;rotatable=0;labelPosition=right;points=[];portConstraint=eastwest;" parent="C1R75RsCY9PM_bfMWn9S-4" vertex="1">
          <mxGeometry y="76" width="220" height="8" as="geometry" />
        </mxCell>
        <mxCell id="C1R75RsCY9PM_bfMWn9S-9" value="+ фиксирует товар" style="text;html=1;strokeColor=none;fillColor=none;align=left;verticalAlign=top;whiteSpace=wrap;rounded=0;" parent="C1R75RsCY9PM_bfMWn9S-4" vertex="1">
          <mxGeometry y="80" width="220" height="50" as="geometry" />
        </mxCell>
        <mxCell id="C1R75RsCY9PM_bfMWn9S-10" value="" style="endArrow=none;startArrow=diamondThin;endFill=0;startFill=0;html=1;verticalAlign=bottom;labelBackgroundColor=none;strokeWidth=1;startSize=8;endSize=8;shadow=0;fontSize=8;align=center;rounded=0;entryX=1;entryY=0;entryDx=0;entryDy=0;exitX=0.5;exitY=0;exitDx=0;exitDy=0;" parent="1" source="TtjdpK1Vxb9fdw-xlZe1-5" target="C1R75RsCY9PM_bfMWn9S-9" edge="1">
          <mxGeometry width="160" relative="1" as="geometry">
            <mxPoint x="490" y="166" as="sourcePoint" />
            <mxPoint x="648.8" y="166.5999999999999" as="targetPoint" />
            <Array as="points">
              <mxPoint x="400" y="-40" />
            </Array>
          </mxGeometry>
        </mxCell>
        <mxCell id="C1R75RsCY9PM_bfMWn9S-11" value="&lt;font style=&quot;font-size: 10px&quot;&gt;работает&lt;/font&gt;" style="text;html=1;align=center;verticalAlign=middle;resizable=0;points=[];autosize=1;strokeColor=none;fontSize=8;rotation=-90;" parent="1" vertex="1">
          <mxGeometry x="344" width="60" height="20" as="geometry" />
        </mxCell>
        <mxCell id="C1R75RsCY9PM_bfMWn9S-12" value="" style="triangle;whiteSpace=wrap;html=1;verticalAlign=top;fillColor=#030303;rotation=90;" parent="1" vertex="1">
          <mxGeometry x="369.5" y="40" width="9" height="15" as="geometry" />
        </mxCell>
        <mxCell id="C1R75RsCY9PM_bfMWn9S-13" value="" style="endArrow=none;html=1;entryX=0;entryY=0.25;entryDx=0;entryDy=0;" parent="1" target="C1R75RsCY9PM_bfMWn9S-9" edge="1">
          <mxGeometry width="50" height="50" relative="1" as="geometry">
            <mxPoint x="250" y="820" as="sourcePoint" />
            <mxPoint x="383.64772727272725" y="370" as="targetPoint" />
            <Array as="points">
              <mxPoint x="-30" y="680" />
              <mxPoint x="-20" y="50" />
            </Array>
          </mxGeometry>
        </mxCell>
        <mxCell id="C1R75RsCY9PM_bfMWn9S-14" value="&lt;font style=&quot;font-size: 10px&quot;&gt;доставляет&lt;/font&gt;" style="text;html=1;align=center;verticalAlign=middle;resizable=0;points=[];autosize=1;strokeColor=none;fontSize=8;rotation=30;" parent="1" vertex="1">
          <mxGeometry x="100" y="730" width="70" height="20" as="geometry" />
        </mxCell>
        <mxCell id="C1R75RsCY9PM_bfMWn9S-16" value="" style="triangle;whiteSpace=wrap;html=1;fillColor=#030303;verticalAlign=top;rotation=45;" parent="1" vertex="1">
          <mxGeometry x="161.5" y="758" width="8.5" height="12" as="geometry" />
        </mxCell>
        <mxCell id="C1R75RsCY9PM_bfMWn9S-21" value="Арендодатель" style="swimlane;fontStyle=1;align=center;verticalAlign=top;childLayout=stackLayout;horizontal=1;startSize=26;horizontalStack=0;resizeParent=1;resizeParentMax=0;resizeLast=0;collapsible=1;marginBottom=0;" parent="1" vertex="1">
          <mxGeometry x="640" y="-154" width="230" height="170" as="geometry" />
        </mxCell>
        <mxCell id="C1R75RsCY9PM_bfMWn9S-22" value="+ ФИО&#xa;+ пол&#xa;+ телефон &#xa;+ адрес&#xa;+ имя пользователя" style="text;strokeColor=none;fillColor=none;align=left;verticalAlign=top;spacingLeft=4;spacingRight=4;overflow=hidden;rotatable=0;points=[[0,0.5],[1,0.5]];portConstraint=eastwest;" parent="C1R75RsCY9PM_bfMWn9S-21" vertex="1">
          <mxGeometry y="26" width="230" height="84" as="geometry" />
        </mxCell>
        <mxCell id="C1R75RsCY9PM_bfMWn9S-23" value="" style="line;strokeWidth=1;fillColor=none;align=left;verticalAlign=middle;spacingTop=-1;spacingLeft=3;spacingRight=3;rotatable=0;labelPosition=right;points=[];portConstraint=eastwest;" parent="C1R75RsCY9PM_bfMWn9S-21" vertex="1">
          <mxGeometry y="110" width="230" height="8" as="geometry" />
        </mxCell>
        <mxCell id="C1R75RsCY9PM_bfMWn9S-24" value="+ выбирает стоимость аренды&#xa;+ описывает характеристики товара" style="text;strokeColor=none;fillColor=none;align=left;verticalAlign=top;spacingLeft=4;spacingRight=4;overflow=hidden;rotatable=0;points=[[0,0.5],[1,0.5]];portConstraint=eastwest;" parent="C1R75RsCY9PM_bfMWn9S-21" vertex="1">
          <mxGeometry y="118" width="230" height="52" as="geometry" />
        </mxCell>
        <mxCell id="C1R75RsCY9PM_bfMWn9S-25" value="" style="endArrow=none;html=1;entryX=1;entryY=0.5;entryDx=0;entryDy=0;exitX=1;exitY=0.75;exitDx=0;exitDy=0;" parent="1" source="C1R75RsCY9PM_bfMWn9S-36" target="C1R75RsCY9PM_bfMWn9S-24" edge="1">
          <mxGeometry width="50" height="50" relative="1" as="geometry">
            <mxPoint x="412" y="710" as="sourcePoint" />
            <mxPoint x="893.2824207492795" y="249" as="targetPoint" />
            <Array as="points">
              <mxPoint x="860" y="700" />
              <mxPoint x="900" y="330" />
              <mxPoint x="950" y="150" />
            </Array>
          </mxGeometry>
        </mxCell>
        <mxCell id="C1R75RsCY9PM_bfMWn9S-26" value="&lt;span style=&quot;font-size: 10px&quot;&gt;создает объявление&amp;nbsp;&lt;/span&gt;" style="text;html=1;align=center;verticalAlign=middle;resizable=0;points=[];autosize=1;strokeColor=none;fontSize=8;rotation=-10;" parent="1" vertex="1">
          <mxGeometry x="525" y="740" width="110" height="20" as="geometry" />
        </mxCell>
        <mxCell id="C1R75RsCY9PM_bfMWn9S-27" value="" style="triangle;whiteSpace=wrap;html=1;fillColor=#030303;verticalAlign=top;rotation=-195;" parent="1" vertex="1">
          <mxGeometry x="514" y="754" width="7" height="16" as="geometry" />
        </mxCell>
        <mxCell id="C1R75RsCY9PM_bfMWn9S-28" value="0..n" style="text;html=1;align=center;verticalAlign=middle;resizable=0;points=[];autosize=1;strokeColor=none;fontSize=8;rotation=0;" parent="1" vertex="1">
          <mxGeometry x="220" y="680" width="30" height="20" as="geometry" />
        </mxCell>
        <mxCell id="C1R75RsCY9PM_bfMWn9S-29" value="0..n" style="text;html=1;align=center;verticalAlign=middle;resizable=0;points=[];autosize=1;strokeColor=none;fontSize=8;rotation=0;" parent="1" vertex="1">
          <mxGeometry x="414" y="770" width="30" height="20" as="geometry" />
        </mxCell>
        <mxCell id="C1R75RsCY9PM_bfMWn9S-30" value="" style="endArrow=none;html=1;exitX=1;exitY=0;exitDx=0;exitDy=0;entryX=-0.004;entryY=0.905;entryDx=0;entryDy=0;entryPerimeter=0;" parent="1" source="TtjdpK1Vxb9fdw-xlZe1-5" target="C1R75RsCY9PM_bfMWn9S-22" edge="1">
          <mxGeometry width="50" height="50" relative="1" as="geometry">
            <mxPoint x="470.0000000000001" y="0.05199999999990723" as="sourcePoint" />
            <mxPoint x="593.62" y="-19" as="targetPoint" />
          </mxGeometry>
        </mxCell>
        <mxCell id="C1R75RsCY9PM_bfMWn9S-31" value="&lt;font style=&quot;font-size: 10px&quot;&gt;посещает&lt;/font&gt;" style="text;html=1;align=center;verticalAlign=middle;resizable=0;points=[];autosize=1;strokeColor=none;fontSize=8;rotation=-40;" parent="1" vertex="1">
          <mxGeometry x="520" y="2" width="60" height="20" as="geometry" />
        </mxCell>
        <mxCell id="C1R75RsCY9PM_bfMWn9S-32" value="" style="triangle;aspect=fixed;fillColor=#000000;fontSize=8;rotation=135;" parent="1" vertex="1">
          <mxGeometry x="520" y="28" width="6" height="12" as="geometry" />
        </mxCell>
        <mxCell id="C1R75RsCY9PM_bfMWn9S-34" value="0..n" style="text;html=1;align=center;verticalAlign=middle;resizable=0;points=[];autosize=1;strokeColor=none;fontSize=8;rotation=-45;" parent="1" vertex="1">
          <mxGeometry x="470" y="70" width="30" height="20" as="geometry" />
        </mxCell>
        <mxCell id="C1R75RsCY9PM_bfMWn9S-40" value="&lt;span style=&quot;font-size: 10px&quot;&gt;обрабатывает&lt;/span&gt;" style="text;html=1;align=center;verticalAlign=middle;resizable=0;points=[];autosize=1;strokeColor=none;fontSize=8;" parent="1" vertex="1">
          <mxGeometry x="419" y="374" width="80" height="20" as="geometry" />
        </mxCell>
        <mxCell id="C1R75RsCY9PM_bfMWn9S-42" value="" style="triangle;aspect=fixed;fillColor=#000000;fontSize=8;direction=west;" parent="1" vertex="1">
          <mxGeometry x="418" y="378" width="6" height="12" as="geometry" />
        </mxCell>
        <mxCell id="C1R75RsCY9PM_bfMWn9S-44" value="" style="line;strokeWidth=1;fillColor=none;align=left;verticalAlign=middle;spacingTop=-1;spacingLeft=3;spacingRight=3;rotatable=0;labelPosition=right;points=[];portConstraint=eastwest;" parent="1" vertex="1">
          <mxGeometry x="207.5" y="480" width="210.5" height="8" as="geometry" />
        </mxCell>
        <mxCell id="C1R75RsCY9PM_bfMWn9S-47" value="" style="endArrow=none;dashed=1;html=1;exitX=0;exitY=0.5;exitDx=0;exitDy=0;startArrow=open;startFill=0;entryX=0.995;entryY=0.71;entryDx=0;entryDy=0;entryPerimeter=0;" parent="1" source="nrKsuJoveC5pMPnF76qd-10" target="TtjdpK1Vxb9fdw-xlZe1-42" edge="1">
          <mxGeometry width="50" height="50" relative="1" as="geometry">
            <mxPoint x="430" y="500" as="sourcePoint" />
            <mxPoint x="480" y="450" as="targetPoint" />
          </mxGeometry>
        </mxCell>
        <mxCell id="C1R75RsCY9PM_bfMWn9S-48" value="" style="endArrow=none;dashed=1;html=1;exitX=0.526;exitY=1.01;exitDx=0;exitDy=0;startArrow=open;startFill=0;entryX=0.438;entryY=0;entryDx=0;entryDy=0;entryPerimeter=0;exitPerimeter=0;" parent="1" source="C1R75RsCY9PM_bfMWn9S-46" target="PLTpWuNPg3qXrqT_sEjc-15" edge="1">
          <mxGeometry width="50" height="50" relative="1" as="geometry">
            <mxPoint x="510" y="447" as="sourcePoint" />
            <mxPoint x="430" y="447.0279999999998" as="targetPoint" />
          </mxGeometry>
        </mxCell>
        <mxCell id="C1R75RsCY9PM_bfMWn9S-50" value="" style="endArrow=none;dashed=1;html=1;startArrow=open;startFill=0;entryX=0;entryY=1;entryDx=0;entryDy=0;exitX=0;exitY=0.5;exitDx=0;exitDy=0;" parent="1" source="C1R75RsCY9PM_bfMWn9S-5" target="C1R75RsCY9PM_bfMWn9S-36" edge="1">
          <mxGeometry width="50" height="50" relative="1" as="geometry">
            <mxPoint x="-60" y="270" as="sourcePoint" />
            <mxPoint x="195" y="945.8879999999999" as="targetPoint" />
            <Array as="points">
              <mxPoint x="-100" y="10" />
              <mxPoint x="-140" y="400" />
              <mxPoint x="-10" y="850" />
            </Array>
          </mxGeometry>
        </mxCell>
      </root>
    </mxGraphModel>
  </diagram>
</mxfile>
